<svg xmlns="http://www.w3.org/2000/svg" viewBox="0 0 512 512"><rect width="512" height="512" rx="112" fill="#F6F3EA"/><path d="M256 374c-71 0-120-52-120-119s49-119 120-119 120 52 120 119-49 119-120 119Z" fill="#FFFDF7" stroke="#CBBFAC" stroke-width="18"/><path d="M244 150C205 74 131 74 83 110c30 67 88 91 161 75" fill="#4F7657"/><path d="M268 150c39-76 113-76 161-40-30 67-88 91-161 75" fill="#6C916E"/><circle cx="215" cy="250" r="16" fill="#243126"/><circle cx="297" cy="250" r="16" fill="#243126"/><path d="M209 304q47 38 94 0" fill="none" stroke="#243126" stroke-width="17" stroke-linecap="round"/></svg>
